<?xml version="1.0" ?><!DOCTYPE svg  PUBLIC '-//W3C//DTD SVG 1.1//EN'  'http://www.w3.org/Graphics/SVG/1.1/DTD/svg11.dtd'><svg aria-labelledby="simpleicons-vk-icon" enable-background="new 0 0 24 24" height="3.33333in" role="img" style="shape-rendering:geometricPrecision; text-rendering:geometricPrecision; image-rendering:optimizeQuality; fill-rule:evenodd; clip-rule:evenodd" version="1.1" viewBox="0 0 3333 3333" width="3.33333in" xml:space="preserve" xmlns="http://www.w3.org/2000/svg" xmlns:xlink="http://www.w3.org/1999/xlink"><defs><style type="text/css">
   <![CDATA[
    .fil0 {fill:black}
    .fil1 {fill:white}
   ]]>
  </style></defs><g id="Layer_x0020_1"><circle class="fil0" cx="1667" cy="1667" r="1667"/><g id="_603888864"><path class="fil1" d="M1645 2147l102 0c0,0 31,-3 47,-20 15,-16 15,-45 15,-45 0,0 -3,-137 61,-157 63,-20 143,132 228,191 65,44 114,35 114,35l228 -3c0,0 119,-8 63,-101 -5,-8 -32,-70 -168,-196 -143,-132 -124,-111 48,-340 104,-139 146,-225 133,-261 -12,-34 -90,-25 -90,-25l-255 2c0,0 -20,-2 -33,6 -14,9 -23,28 -23,28 0,0 -40,108 -94,200 -116,194 -161,204 -179,192 -43,-28 -32,-113 -32,-173 0,-187 28,-266 -56,-286 -27,-7 -48,-11 -119,-12 -92,-1 -169,1 -213,22 -29,14 -51,46 -38,48 17,2 55,10 75,38 27,36 26,116 26,116 0,0 15,221 -35,249 -35,18 -82,-20 -184,-196 -52,-89 -92,-189 -92,-189 0,0 -7,-19 -21,-29 -16,-12 -40,-16 -40,-16l-243 2c0,0 -37,1 -49,17 -12,14 -1,44 -1,44 0,0 190,446 406,670 198,206 423,193 423,193l-4 -4z"/></g></g></svg>